<?xml version="1.0" standalone="no"?>
<!DOCTYPE svg PUBLIC "-//W3C//DTD SVG 20010904//EN"
 "http://www.w3.org/TR/2001/REC-SVG-20010904/DTD/svg10.dtd">
<svg version="1.0" xmlns="http://www.w3.org/2000/svg"
 width="607.000000pt" height="395.000000pt" viewBox="0 0 607.000000 395.000000"
 preserveAspectRatio="xMidYMid meet">
<metadata>
Created by potrace 1.16, written by Peter Selinger 2001-2019
</metadata>
<g transform="translate(0.000000,395.000000) scale(0.100000,-0.100000)"
fill="#000000" stroke="none">
<path d="M0 2735 l0 -1215 191 0 190 0 -3 -42 -3 -43 -137 -3 -138 -3 0 -139
0 -140 105 0 105 0 0 -45 0 -45 -105 0 -105 0 0 -205 0 -205 -50 0 -50 0 0
-150 0 -150 90 0 c83 0 90 -1 90 -20 0 -16 -7 -20 -35 -20 l-35 0 0 -155 0
-155 55 0 55 0 0 175 c0 149 2 175 15 175 12 0 15 -13 15 -55 0 -30 2 -55 4
-55 3 0 17 5 32 10 20 8 32 7 50 -5 23 -15 24 -21 24 -130 l0 -115 48 0 c26 0
42 4 36 8 -38 25 -49 182 -16 220 48 57 120 23 129 -61 l6 -47 -61 0 -62 0 7
-32 c11 -62 41 -76 69 -34 9 15 21 22 30 19 20 -7 17 -23 -8 -50 l-21 -23 121
0 c91 0 122 3 122 13 -1 6 -18 83 -39 170 -32 132 -36 159 -24 164 23 9 29 -5
53 -112 12 -55 24 -109 27 -120 7 -23 7 -23 43 138 18 81 25 97 41 97 10 0 19
-4 19 -10 0 -10 -68 -306 -75 -328 -3 -9 14 -12 64 -12 l69 0 -20 38 c-15 29
-19 52 -16 106 3 60 7 71 31 92 36 31 62 30 92 -1 22 -21 25 -33 25 -100 0
-73 -10 -112 -34 -127 -6 -4 10 -8 37 -8 l47 0 0 125 c0 118 1 125 20 125 19
0 20 -7 20 -125 l0 -125 46 0 45 0 -20 26 c-17 21 -21 41 -21 96 0 105 33 149
98 131 21 -5 52 -48 52 -73 0 -19 -35 -10 -45 12 -12 27 -44 36 -56 16 -13
-20 -11 -152 3 -166 19 -19 37 -14 50 13 12 26 48 35 48 11 0 -7 -9 -25 -21
-40 l-20 -26 57 0 57 0 -19 21 c-16 17 -19 37 -19 106 0 81 1 86 29 110 54 46
116 7 116 -73 l0 -44 -55 0 c-52 0 -55 -1 -55 -26 0 -59 47 -87 71 -41 16 29
14 28 31 22 21 -8 12 -41 -15 -60 -19 -14 -11 -15 86 -15 l107 0 0 110 c0 103
-1 110 -20 110 -11 0 -20 7 -20 15 0 8 9 15 20 15 16 0 20 7 20 38 0 21 5 43
12 50 18 18 68 15 68 -3 0 -8 -9 -15 -19 -15 -20 0 -31 -18 -31 -51 0 -12 7
-19 20 -19 11 0 20 -7 20 -15 0 -8 -9 -15 -20 -15 -19 0 -20 -7 -20 -110 l0
-110 58 0 c31 0 52 4 46 8 -33 21 -47 146 -24 207 21 56 106 52 130 -6 18 -43
9 -162 -14 -188 -19 -21 -19 -21 22 -21 l42 0 0 125 c0 118 1 125 20 125 11 0
20 -5 20 -10 0 -6 11 -3 25 6 13 8 29 13 35 9 15 -9 12 -35 -5 -35 -8 0 -24
-9 -35 -20 -17 -17 -20 -33 -20 -110 l0 -90 100 0 100 0 0 175 0 175 45 0 c63
0 113 -23 126 -57 14 -38 3 -89 -24 -108 l-22 -15 29 -85 29 -85 40 0 c40 0
40 0 21 21 -13 15 -20 40 -22 90 -5 81 10 126 45 140 56 21 103 -22 103 -96
l0 -35 -55 0 -55 0 0 -34 c0 -18 7 -39 15 -46 14 -11 55 -6 55 8 1 18 18 32
33 26 15 -5 15 -9 2 -34 -8 -16 -20 -30 -27 -33 -7 -3 13 -6 45 -6 53 -1 57 0
43 15 -9 8 -16 31 -16 50 0 39 25 69 77 90 26 12 34 20 31 37 -4 30 -43 35
-58 8 -11 -22 -50 -29 -50 -10 0 18 57 69 78 69 11 0 31 -9 45 -20 25 -20 26
-26 29 -128 l3 -107 33 -3 32 -3 0 176 c0 163 1 176 18 173 15 -3 17 -21 20
-176 l2 -172 80 0 80 0 0 175 0 175 80 0 c73 0 80 -2 80 -20 0 -18 -7 -20 -60
-20 l-60 0 0 -55 0 -55 45 0 c38 0 45 -3 45 -20 0 -17 -7 -20 -45 -20 l-45 0
0 -60 0 -60 65 0 c58 0 65 -2 65 -20 0 -16 7 -20 35 -20 l35 0 -20 20 c-11 11
-20 27 -20 35 0 22 33 18 48 -5 16 -26 38 -26 52 1 10 17 6 25 -25 55 -20 19
-40 34 -44 34 -5 0 -14 13 -21 30 -10 25 -10 34 4 55 9 13 27 27 41 31 44 11
107 -46 74 -67 -10 -6 -18 -3 -28 11 -16 23 -46 26 -54 6 -7 -17 6 -34 54 -69
20 -14 40 -38 43 -52 6 -25 -7 -64 -28 -77 -6 -4 13 -8 43 -8 44 0 52 3 47 16
-3 9 -6 58 -6 110 0 87 -1 94 -20 94 -11 0 -20 7 -20 15 0 8 9 15 20 15 17 0
20 7 20 40 0 33 3 40 20 40 17 0 20 -7 20 -40 0 -33 3 -40 20 -40 11 0 20 -7
20 -15 0 -8 -9 -15 -20 -15 -19 0 -20 -7 -20 -95 0 -88 1 -95 20 -95 11 0 20
-7 20 -15 0 -10 10 -15 29 -15 l29 0 -15 31 c-23 46 2 93 62 120 25 11 45 24
45 29 0 41 -41 54 -62 20 -7 -11 -21 -20 -30 -20 -21 0 -21 2 -7 34 23 51 103
55 128 7 6 -11 11 -65 11 -120 l0 -101 38 0 37 0 -3 110 c-3 101 -5 110 -23
110 -10 0 -19 7 -19 15 0 8 9 15 20 15 17 0 20 7 20 40 0 33 3 40 20 40 17 0
20 -7 20 -40 0 -33 3 -40 20 -40 11 0 20 -7 20 -15 0 -8 -9 -15 -20 -15 -19 0
-20 -7 -20 -95 0 -88 1 -95 20 -95 11 0 20 -7 20 -15 0 -11 11 -15 38 -15 20
0 32 4 26 8 -38 25 -49 182 -16 220 48 57 120 23 129 -61 l6 -47 -57 0 -57 0
3 -36 c2 -23 10 -41 21 -48 15 -9 22 -6 42 18 22 28 45 29 45 1 0 -8 -10 -23
-22 -35 l-22 -20 167 0 167 0 0 125 c0 118 1 125 20 125 19 0 20 -7 20 -125
l0 -125 35 0 35 0 0 126 c0 124 0 126 21 121 12 -3 33 -1 46 4 19 7 32 6 49
-6 23 -15 24 -21 24 -130 l0 -115 85 0 85 0 0 175 0 176 72 -3 c60 -2 73 -6
76 -20 3 -15 -5 -18 -52 -18 l-56 0 0 -55 0 -55 40 0 c33 0 40 -3 40 -20 0
-17 -7 -20 -40 -20 l-40 0 0 -80 0 -80 70 0 70 0 0 175 c0 168 1 175 20 175
19 0 20 -7 20 -175 l0 -175 46 0 45 0 -20 26 c-17 21 -21 41 -21 96 0 41 6 80
15 97 27 53 102 47 125 -10 18 -43 9 -163 -14 -188 -19 -21 -19 -21 22 -21
l42 0 0 125 c0 118 1 125 20 125 11 0 20 -5 20 -10 0 -6 11 -3 25 6 13 8 29
13 35 9 15 -9 12 -35 -3 -35 -8 0 -23 -10 -35 -23 -19 -20 -22 -35 -22 -110
l0 -87 50 0 50 0 0 125 c0 118 1 125 20 125 19 0 20 -7 20 -125 l0 -125 44 0
44 0 -19 37 c-19 38 -24 113 -10 162 3 13 19 33 33 44 23 17 32 19 53 9 l25
-12 0 55 c0 42 3 55 15 55 13 0 15 -21 15 -129 0 -70 3 -149 6 -175 l7 -46 40
0 c38 0 39 1 24 18 -28 31 -21 76 15 107 18 15 43 31 56 36 17 6 22 15 20 32
-5 33 -45 35 -59 3 -13 -27 -39 -25 -39 4 0 37 65 69 102 49 35 -18 38 -27 38
-126 0 -50 3 -98 6 -107 5 -13 26 -16 130 -16 l124 0 0 583 c-1 490 -3 577
-14 552 -16 -36 -52 -55 -105 -55 -51 0 -101 52 -101 106 0 53 53 104 108 104
43 0 88 -28 102 -64 5 -12 9 583 9 1352 l1 1372 -1443 0 c-1141 0 -1446 -3
-1456 -12 -11 -10 -13 -10 -7 0 6 9 -313 12 -1578 12 l-1586 0 0 -1215z m3241
1138 c13 -16 12 -17 -3 -4 -17 13 -22 21 -14 21 2 0 10 -8 17 -17z m249 -323
l222 -285 70 -7 c38 -3 70 -8 72 -10 5 -8 270 -374 278 -385 7 -8 -10 -36 -53
-87 l-63 -75 -41 57 c-23 31 -59 84 -81 116 l-39 59 -3 -502 -2 -501 -28 6
c-15 4 -90 24 -167 44 l-140 36 -3 489 -2 488 95 -7 95 -6 -259 345 c-143 191
-263 345 -268 344 -7 -2 -423 -594 -423 -603 0 -2 27 -7 60 -11 l60 -7 0 -429
c0 -307 -3 -429 -11 -429 -6 0 -67 14 -135 32 l-124 32 0 409 0 410 66 -6 c63
-6 66 -5 52 11 -9 9 -95 132 -193 272 -200 287 -186 268 -191 255 -2 -5 -78
-116 -169 -245 l-165 -235 47 -5 48 -5 3 -364 2 -364 -32 7 c-18 4 -68 16
-110 27 l-78 21 -2 312 -3 311 -40 -57 c-22 -32 -42 -58 -45 -58 -6 0 -61 92
-62 103 0 5 35 58 78 118 77 108 78 109 118 109 l41 1 138 207 c122 183 192
283 172 244 -6 -12 52 -112 65 -112 3 0 22 25 44 56 21 31 42 52 46 47 4 -4
72 -98 150 -208 79 -110 146 -203 150 -208 3 -4 82 105 174 243 150 223 185
269 186 243 0 -5 20 -30 43 -57 l44 -49 47 67 c42 58 46 69 35 84 -7 9 -8 13
-2 7 6 -5 111 -138 233 -295z m-1129 273 c11 -15 11 -16 -1 -6 -11 10 -17 10
-29 0 -14 -11 -14 -10 -2 6 7 9 15 17 16 17 1 0 9 -8 16 -17z m50 -70 c13 -16
12 -17 -3 -4 -10 7 -18 15 -18 17 0 8 8 3 21 -13z m389 -51 c62 -63 65 -179 5
-239 -109 -109 -239 72 -153 214 24 41 44 52 86 53 24 0 42 -8 62 -28z m996 9
c67 -41 95 -178 52 -260 -29 -56 -65 -83 -112 -84 -78 -2 -140 85 -134 188 7
105 60 175 133 175 17 0 44 -9 61 -19z m-1813 -141 c59 -47 50 -182 -14 -215
-37 -20 -51 -19 -82 6 -54 42 -59 141 -11 199 31 36 69 39 107 10z m410 -856
l27 -6 0 -205 c0 -163 -3 -203 -12 -195 -7 6 -41 16 -75 23 l-63 13 0 194 0
194 48 -6 c26 -4 59 -9 75 -12z m800 -126 l77 -11 0 -247 0 -247 -57 19 c-62
21 -126 27 -158 15 -13 -5 -12 -4 3 4 22 12 22 14 22 246 0 215 1 233 18 233
9 0 52 -5 95 -12z m-803 -298 c-8 -5 -19 -10 -25 -10 -5 0 -3 5 5 10 8 5 20
10 25 10 6 0 3 -5 -5 -10z m1702 -164 c21 -13 48 -65 48 -93 0 -30 -36 -79
-69 -92 -44 -19 -95 -6 -125 30 -80 94 40 221 146 155z m-1065 -52 c-3 -3 -12
-4 -19 -1 -8 3 -5 6 6 6 11 1 17 -2 13 -5z m-2477 -989 l0 -435 -50 0 -50 0 0
435 0 435 50 0 50 0 0 -435z m1020 381 l0 -55 -47 2 -48 2 -3 53 -3 52 50 0
51 0 0 -54z m480 -320 c0 -205 3 -401 6 -435 l7 -61 -43 0 c-33 0 -43 4 -47
20 -5 20 -5 20 -30 0 -62 -49 -147 -44 -202 10 -54 55 -74 127 -75 275 -1 159
16 227 73 288 33 35 44 41 92 44 46 4 60 1 92 -21 l37 -25 0 139 0 140 45 0
45 0 0 -374z m933 363 c49 -13 105 -63 128 -114 21 -45 24 -130 8 -188 -10
-36 -65 -101 -103 -123 -19 -10 -16 -19 49 -210 37 -109 70 -205 73 -211 3
-10 -11 -13 -50 -13 l-55 0 -68 203 c-37 111 -69 203 -71 205 -1 2 -27 1 -58
-3 l-56 -7 0 -199 0 -199 -50 0 -50 0 0 435 0 435 133 0 c72 0 149 -5 170 -11z
m1267 -424 l0 -435 -45 0 -45 0 0 435 0 435 45 0 45 0 0 -435z m270 300 l0
-105 55 0 55 0 0 -40 0 -40 -55 0 -55 0 0 -234 c0 -264 0 -263 71 -253 l40 5
-3 -36 c-3 -34 -6 -37 -44 -45 -53 -10 -110 9 -138 46 -20 27 -21 43 -24 273
l-3 244 -39 0 c-40 0 -40 0 -40 40 l0 40 40 0 40 0 0 105 0 105 50 0 50 0 0
-105z m-3589 -116 c53 -27 85 -95 101 -213 21 -167 -16 -338 -84 -389 -57 -43
-170 -38 -221 9 -62 57 -82 143 -75 325 6 145 22 202 69 246 52 47 142 57 210
22z m456 -20 c1 -24 -3 -42 -10 -44 -7 -2 -25 -6 -41 -10 -16 -3 -47 -23 -68
-44 l-38 -39 0 -231 0 -231 -50 0 -50 0 0 316 0 315 48 -3 c43 -3 47 -5 50
-31 3 -27 4 -27 20 -8 24 28 71 51 107 51 29 0 31 -2 32 -41z m1059 22 c25
-12 50 -33 65 -57 22 -37 24 -49 27 -219 1 -99 3 -217 5 -263 l2 -82 -47 0
c-41 0 -48 3 -48 20 0 25 2 25 -55 -7 -84 -46 -172 -28 -222 47 -30 43 -31
125 -4 179 34 66 125 130 229 161 40 13 42 15 42 52 0 44 -22 93 -45 102 -56
21 -113 -13 -135 -80 -11 -32 -14 -34 -56 -34 -43 0 -44 1 -38 28 19 77 51
124 102 152 47 25 125 25 178 1z m1022 0 c20 -11 47 -35 59 -53 30 -45 53
-139 53 -215 l0 -63 -145 0 -145 0 0 -65 c0 -110 32 -157 107 -157 42 0 70 24
85 74 11 36 13 38 55 38 49 0 52 -8 27 -68 -33 -79 -99 -125 -180 -125 -62 0
-109 24 -141 73 -38 55 -48 107 -48 255 0 150 14 215 57 271 43 54 146 71 216
35z m478 3 c43 -20 71 -55 83 -103 6 -20 11 -145 13 -279 l3 -242 -47 0 c-41
0 -48 3 -48 20 0 25 -5 25 -38 1 -61 -43 -145 -45 -201 -3 -69 50 -81 165 -25
245 44 63 112 104 250 151 20 7 0 107 -26 128 -48 39 -122 7 -145 -63 -11 -31
-16 -34 -53 -37 -37 -3 -42 -1 -42 18 0 53 47 125 105 161 38 24 124 25 171 3z
m1031 -10 c66 -48 98 -170 90 -339 -8 -160 -34 -227 -105 -268 -45 -27 -129
-27 -174 0 -79 46 -103 119 -102 313 0 126 3 152 22 201 24 60 39 78 87 104
42 22 145 16 182 -11z m443 -19 c0 -42 -2 -45 -25 -45 -36 0 -78 -23 -109 -60
l-26 -32 0 -229 0 -229 -50 0 -50 0 0 315 0 315 50 0 c49 0 50 0 50 -31 l0
-32 28 28 c33 33 56 44 100 44 31 1 32 0 32 -44z m309 16 c35 -25 79 -108 64
-121 -4 -4 -22 -12 -40 -18 -29 -10 -32 -8 -38 15 -16 65 -101 97 -145 53 -45
-45 -15 -104 83 -166 127 -81 160 -123 160 -209 1 -85 -50 -154 -129 -174
-102 -26 -215 40 -239 140 -6 24 -3 27 35 37 40 10 41 9 56 -21 29 -57 54 -77
96 -77 74 0 112 78 69 143 -10 16 -49 49 -87 74 -125 83 -154 120 -154 199 0
58 29 107 78 134 52 28 145 23 191 -9z m-4159 -296 l0 -315 -50 0 -50 0 0 308
c0 170 3 312 7 315 3 4 26 7 50 7 l43 0 0 -315z m2662 -587 c22 -11 48 -59 48
-88 0 -62 -67 -116 -130 -104 -43 9 -80 56 -80 103 0 84 83 130 162 89z
m-3092 -53 c0 -18 -5 -25 -20 -25 -15 0 -20 7 -20 25 0 18 5 25 20 25 15 0 20
-7 20 -25z m3240 0 c0 -18 -5 -25 -20 -25 -20 0 -28 28 -13 43 15 16 33 6 33
-18z m1020 0 c0 -18 -5 -25 -20 -25 -15 0 -20 7 -20 25 0 18 5 25 20 25 15 0
20 -7 20 -25z"/>
<path d="M3975 2095 c-54 -53 -20 -135 56 -135 l40 0 -23 30 c-27 37 -38 38
-38 5 0 -28 -15 -34 -24 -9 -3 9 -6 38 -6 65 l0 49 34 0 c19 0 41 -3 50 -6 20
-8 21 -50 2 -61 -13 -7 -12 -12 3 -32 l19 -24 12 22 c16 31 4 87 -23 106 -32
22 -74 19 -102 -10z"/>
<path d="M4010 2065 c0 -8 9 -15 20 -15 11 0 20 7 20 15 0 8 -9 15 -20 15 -11
0 -20 -7 -20 -15z"/>
<path d="M1806 1185 c-33 -36 -46 -97 -46 -223 0 -123 18 -203 53 -227 33 -23
81 -19 116 11 l31 26 0 193 0 193 -31 26 c-41 35 -92 35 -123 1z"/>
<path d="M2780 1284 l0 -147 78 6 c127 8 172 46 172 142 0 108 -44 145 -175
145 l-75 0 0 -146z"/>
<path d="M782 1187 c-45 -47 -57 -337 -17 -421 31 -65 113 -68 150 -5 18 30
20 52 20 199 0 216 -13 250 -98 250 -22 0 -41 -8 -55 -23z"/>
<path d="M2364 949 c-33 -17 -69 -40 -81 -51 -45 -42 -53 -119 -16 -160 24
-27 90 -23 136 7 l37 26 0 104 c0 58 -4 105 -9 105 -5 0 -35 -14 -67 -31z"/>
<path d="M3337 1198 c-24 -19 -47 -81 -47 -128 l0 -40 95 0 c83 0 95 2 96 18
4 63 -15 127 -44 147 -26 18 -77 20 -100 3z"/>
<path d="M3890 963 c-99 -43 -153 -111 -143 -180 12 -76 103 -89 176 -25 14
13 17 33 17 119 0 56 -3 103 -7 102 -5 0 -24 -7 -43 -16z"/>
<path d="M4823 1195 c-34 -24 -45 -100 -42 -267 4 -130 6 -150 25 -175 18 -24
28 -28 69 -28 41 0 51 4 69 28 19 25 21 45 24 174 5 177 -2 228 -33 259 -28
28 -79 32 -112 9z"/>
<path d="M4119 351 c-18 -14 -24 -29 -24 -61 0 -32 6 -47 24 -61 54 -44 131
-8 131 62 0 68 -78 103 -131 60z m99 -29 c2 -13 -1 -29 -7 -35 -6 -8 -6 -18
-1 -27 13 -21 12 -30 -3 -30 -8 0 -19 11 -25 25 -6 14 -16 25 -22 25 -5 0 -10
-11 -10 -25 0 -14 -4 -25 -10 -25 -6 0 -10 27 -10 61 l0 60 43 -3 c35 -3 43
-7 45 -26z"/>
<path d="M4150 314 c0 -10 7 -14 22 -12 32 5 35 28 4 28 -17 0 -26 -5 -26 -16z"/>
<path d="M5927 1263 c-21 -6 -47 -53 -47 -88 0 -35 42 -75 79 -75 16 0 33 5
36 10 3 6 2 10 -3 10 -5 0 -14 11 -20 25 -6 14 -16 25 -22 25 -5 0 -10 -11
-10 -25 0 -14 -4 -25 -10 -25 -6 0 -10 28 -10 65 0 63 1 65 26 65 53 0 82 -38
52 -68 -9 -9 -8 -18 2 -38 13 -24 15 -24 27 -8 14 19 17 62 7 89 -7 17 -55 46
-76 44 -7 -1 -21 -3 -31 -6z"/>
<path d="M5940 1216 c0 -17 23 -27 39 -16 13 8 9 12 -21 23 -12 4 -18 1 -18
-7z"/>
<path d="M0 155 l0 -155 35 0 35 0 0 155 0 155 -35 0 -35 0 0 -155z"/>
<path d="M2260 255 l0 -55 35 0 c44 0 71 34 56 72 -10 27 -29 38 -67 38 -22 0
-24 -3 -24 -55z"/>
<path d="M266 205 c-12 -13 -16 -37 -16 -111 l0 -94 35 0 36 0 -3 107 c-3 90
-6 108 -19 111 -9 2 -24 -4 -33 -13z"/>
<path d="M456 204 c-15 -39 -7 -54 29 -54 30 0 35 3 35 23 0 42 -50 66 -64 31z"/>
<path d="M951 201 c-16 -29 -14 -134 3 -157 36 -47 75 36 59 124 -6 37 -13 48
-30 50 -14 2 -26 -4 -32 -17z"/>
<path d="M1421 201 c-20 -37 -14 -51 25 -51 34 0 35 1 32 33 -4 39 -40 51 -57
18z"/>
<path d="M1835 197 c-3 -12 -5 -51 -3 -86 2 -49 7 -67 21 -75 15 -9 21 -7 33
8 18 25 19 147 2 164 -20 20 -47 14 -53 -11z"/>
<path d="M2492 208 c-7 -7 -12 -22 -12 -35 0 -20 5 -23 35 -23 28 0 35 4 35
19 0 47 -30 67 -58 39z"/>
<path d="M3946 204 c-15 -39 -7 -54 29 -54 30 0 35 3 35 23 0 42 -50 66 -64
31z"/>
<path d="M4497 202 c-13 -15 -17 -39 -17 -110 l0 -92 35 0 35 0 0 110 c0 100
-2 110 -18 110 -11 0 -26 -8 -35 -18z"/>
<path d="M5075 197 c-12 -46 -1 -149 17 -160 31 -20 48 8 48 83 0 84 -6 100
-36 100 -16 0 -25 -7 -29 -23z"/>
<path d="M5500 194 c-17 -43 -12 -119 8 -144 16 -19 22 -21 40 -11 20 10 22
20 22 84 0 44 -5 78 -12 85 -20 20 -48 14 -58 -14z"/>
<path d="M2260 81 l0 -81 49 0 50 0 -29 78 c-21 59 -33 78 -49 80 -20 3 -21
-1 -21 -77z"/>
<path d="M2696 109 c-47 -37 -27 -96 23 -69 16 8 21 20 21 50 0 46 -7 48 -44
19z"/>
<path d="M3631 104 c-34 -29 -38 -45 -16 -64 12 -10 21 -10 40 -2 21 10 25 19
25 52 0 47 -8 49 -49 14z"/>
<path d="M5745 120 c-30 -11 -47 -36 -43 -62 4 -27 26 -34 51 -15 13 9 18 23
15 49 -3 31 -6 34 -23 28z"/>
</g>
</svg>
